<?xml version="1.0" encoding="UTF-8" standalone="no"?>
<!DOCTYPE svg PUBLIC "-//W3C//DTD SVG 1.1//EN" "http://www.w3.org/Graphics/SVG/1.1/DTD/svg11.dtd">
<svg version="1.1" xmlns="http://www.w3.org/2000/svg" xmlns:xlink="http://www.w3.org/1999/xlink" preserveAspectRatio="xMidYMid meet" viewBox="0 0 640 640" width="640" height="640"><defs><path d="M320 590.42C169.87 431.88 26.67 295.7 26.67 178.2C26.67 69.69 108.48 29.62 167.49 29.62C202.48 29.62 278.19 43.96 320 157.19C362.4 43.62 439.04 29.91 472.69 29.91C540.43 29.91 613.33 76.31 613.33 178.2C613.33 294.67 476.37 425.07 320 590.42M472.69 1.29C413.95 1.29 354.13 31.11 320 93.97C285.73 30.82 226.08 1 167.49 1C82.61 1 0 63.6 0 178.2C0 311.61 148.56 448.08 320 630.69C491.47 448.08 640 311.61 640 178.2C640 63.4 557.47 1.29 472.69 1.29" id="a1KrAD9ryw"></path></defs><g><g><g><use xlink:href="#a1KrAD9ryw" opacity="1" fill="#000000" fill-opacity="1"></use><g><use xlink:href="#a1KrAD9ryw" opacity="1" fill-opacity="0" stroke="#000000" stroke-width="1" stroke-opacity="0"></use></g></g></g></g></svg>