<?xml version="1.0" encoding="UTF-8" standalone="no"?>
<!DOCTYPE svg PUBLIC "-//W3C//DTD SVG 1.1//EN" "http://www.w3.org/Graphics/SVG/1.1/DTD/svg11.dtd">
<svg version="1.1" xmlns="http://www.w3.org/2000/svg" xmlns:xlink="http://www.w3.org/1999/xlink" preserveAspectRatio="xMidYMid meet" viewBox="0 0 640 640" width="640" height="640"><defs><path d="M144.62 188.08L148.46 199.62L170.77 236.54L208.46 291.92L245.38 341.15L258.46 358.08L269.23 371.15L276.92 381.15L268.46 368.08L256.15 350.38L247.69 336.54L238.46 320.38L228.46 301.92L223.85 292.69L216.15 276.54L211.54 267.31L206.15 256.54" id="b2noLWhJBp"></path><path d="M116.15 470.38L103.08 474.23L91.54 474.23L80.77 474.23L66.92 474.23L53.85 474.23L49.23 462.69L60 455L70.77 457.31L83.85 460.38L95.38 465L107.69 470.38L119.23 475.77L130 481.92L143.08 489.62" id="a1tVvgD2hM"></path><path d="M362.31 290.38C362.31 329.87 322.5 361.92 273.46 361.92C224.43 361.92 184.62 329.87 184.62 290.38C184.62 250.9 224.43 218.85 273.46 218.85C322.5 218.85 362.31 250.9 362.31 290.38Z" id="a1VMtoxu0G"></path><path d="M410 242.31C410 308.33 323.83 361.92 217.69 361.92C111.55 361.92 25.38 308.33 25.38 242.31C25.38 176.29 111.55 122.69 217.69 122.69C323.83 122.69 410 176.29 410 242.31Z" id="b2aCpcTyl6"></path><path d="M326.92 153.85C326.92 226.02 256.61 284.62 170 284.62C83.39 284.62 13.08 226.02 13.08 153.85C13.08 81.67 83.39 23.08 170 23.08C256.61 23.08 326.92 81.67 326.92 153.85Z" id="c1wUlqGq28"></path><path d="M575.38 298.08C575.38 371.52 460.43 431.15 318.85 431.15C177.26 431.15 62.31 371.52 62.31 298.08C62.31 224.63 177.26 165 318.85 165C460.43 165 575.38 224.63 575.38 298.08Z" id="c1BAz3wlcT"></path><path d="M518.08 333.08C518.08 427.96 428.8 505 318.85 505C208.89 505 119.62 427.96 119.62 333.08C119.62 238.19 208.89 161.15 318.85 161.15C428.8 161.15 518.08 238.19 518.08 333.08Z" id="cUuxtC6J"></path><path d="M566.92 126.54C566.92 179.18 512.12 221.92 444.62 221.92C377.11 221.92 322.31 179.18 322.31 126.54C322.31 73.89 377.11 31.15 444.62 31.15C512.12 31.15 566.92 73.89 566.92 126.54Z" id="b15Tg09UuN"></path><path d="M623.85 161.73C623.85 238.26 564.22 300.38 490.77 300.38C417.32 300.38 357.69 238.26 357.69 161.73C357.69 85.21 417.32 23.08 490.77 23.08C564.22 23.08 623.85 85.21 623.85 161.73Z" id="dihMDBcXJ"></path><path d="M608.46 232.31C608.46 280.71 578.13 320 540.77 320C503.41 320 473.08 280.71 473.08 232.31C473.08 183.91 503.41 144.62 540.77 144.62C578.13 144.62 608.46 183.91 608.46 232.31Z" id="bllOJUuq"></path><path d="M422.31 456.54C422.31 510.88 374.91 555 316.54 555C258.16 555 210.77 510.88 210.77 456.54C210.77 402.2 258.16 358.08 316.54 358.08C374.91 358.08 422.31 402.2 422.31 456.54Z" id="f12B3P7s1b"></path><path d="M447.31 481.92C447.31 493.81 436.11 503.46 422.31 503.46C408.51 503.46 397.31 493.81 397.31 481.92C397.31 470.04 408.51 460.38 422.31 460.38C436.11 460.38 447.31 470.04 447.31 481.92Z" id="h23XRY5Rf7"></path><path d="M365.77 546.92C365.77 572.61 344.74 593.46 318.85 593.46C292.95 593.46 271.92 572.61 271.92 546.92C271.92 521.24 292.95 500.38 318.85 500.38C344.74 500.38 365.77 521.24 365.77 546.92Z" id="c2F4i4FwlU"></path><path d="M320 590.42C169.87 431.88 26.67 295.7 26.67 178.2C26.67 69.69 108.48 29.62 167.49 29.62C202.48 29.62 278.19 43.96 320 157.19C362.4 43.62 439.04 29.91 472.69 29.91C540.43 29.91 613.33 76.31 613.33 178.2C613.33 294.67 476.37 425.07 320 590.42M472.69 1.29C413.95 1.29 354.13 31.11 320 93.97C285.73 30.82 226.08 1 167.49 1C82.61 1 0 63.6 0 178.2C0 311.61 148.56 448.08 320 630.69C491.47 448.08 640 311.61 640 178.2C640 63.4 557.47 1.29 472.69 1.29" id="ggQowiUsD"></path></defs><g><g><g><g><use xlink:href="#b2noLWhJBp" opacity="1" fill-opacity="0" stroke="#000000" stroke-width="3" stroke-opacity="0"></use></g></g><g><g><use xlink:href="#a1tVvgD2hM" opacity="1" fill-opacity="0" stroke="#000000" stroke-width="3" stroke-opacity="0"></use></g></g><g><use xlink:href="#a1VMtoxu0G" opacity="1" fill="#ce0000" fill-opacity="1"></use></g><g><use xlink:href="#b2aCpcTyl6" opacity="1" fill="#b70a0a" fill-opacity="1"></use></g><g><use xlink:href="#c1wUlqGq28" opacity="1" fill="#b70a0a" fill-opacity="1"></use></g><g><use xlink:href="#c1BAz3wlcT" opacity="1" fill="#b70a0a" fill-opacity="1"></use></g><g><use xlink:href="#cUuxtC6J" opacity="1" fill="#b70a0a" fill-opacity="1"></use></g><g><use xlink:href="#b15Tg09UuN" opacity="1" fill="#b70a0a" fill-opacity="1"></use></g><g><use xlink:href="#dihMDBcXJ" opacity="1" fill="#b70a0a" fill-opacity="1"></use></g><g><use xlink:href="#bllOJUuq" opacity="1" fill="#b70a0a" fill-opacity="1"></use></g><g><use xlink:href="#f12B3P7s1b" opacity="1" fill="#b70a0a" fill-opacity="1"></use></g><g><use xlink:href="#h23XRY5Rf7" opacity="1" fill="#b70a0a" fill-opacity="1"></use></g><g><use xlink:href="#c2F4i4FwlU" opacity="1" fill="#b70a0a" fill-opacity="1"></use></g><g><use xlink:href="#ggQowiUsD" opacity="1" fill="#000000" fill-opacity="1"></use><g><use xlink:href="#ggQowiUsD" opacity="1" fill-opacity="0" stroke="#000000" stroke-width="1" stroke-opacity="0"></use></g></g></g></g></svg>